# xmcd
#
# Track frame offsets:
#	225
#	9380
#	21317
#	31035
#	45060
#	55577
#	67280
#	76875
#	87557
#	97227
#	108425
#	121605
#
# Disc length: 1744 seconds
#
# Revision: 0
# Processed by: cddbd v1.4PL0 Copyright (c) Steve Scherf et al.
# Submitted via: audiograbber 1.80.04
#
DISCID=8c06cd0c
DTITLE=Blue Jay - Polka Party Time
DYEAR=1900
DGENRE=Pop
TTITLE0=Helena Polka
TTITLE1=Lets Get Married Polka
TTITLE2=Lublin Polka
TTITLE3=Woodpecker Polka
TTITLE4=Beer and Pretzels Polka
TTITLE5=The Wichita Polka
TTITLE6=The Corn Cob Polka
TTITLE7=Tru-Lu Polka
TTITLE8=When We Were Young Polka
TTITLE9=Too Late Fourties Polka
TTITLE10=Big Top Polka
TTITLE11=His and Hers Polka
EXTD=
EXTT0=
EXTT1=
EXTT2=
EXTT3=
EXTT4=
EXTT5=
EXTT6=
EXTT7=
EXTT8=
EXTT9=
EXTT10=
EXTT11=
PLAYORDER=
